<svg width="152" height="28" viewBox="0 0 152 28" fill="none" xmlns="http://www.w3.org/2000/svg">
<g clip-path="url(#clip0)">
<path d="M41.4009 12.6295C41.4009 9.33952 36.4561 10.1095 36.4561 8.40152C36.4561 7.78552 36.8979 7.49152 37.4821 7.50552C38.1376 7.51952 38.5936 7.89752 38.6364 8.52752H41.2726C41.1729 6.65152 39.7051 5.58752 37.5249 5.58752C35.4301 5.58752 33.8769 6.62352 33.8769 8.48552C33.8484 11.9715 38.8501 10.9915 38.8501 12.8115C38.8501 13.3855 38.3941 13.7355 37.6816 13.7355C36.9976 13.7355 36.5131 13.3715 36.4419 12.6155H33.8484C33.9196 14.6035 35.6011 15.6535 37.7529 15.6535C40.0899 15.6535 41.4009 14.2815 41.4009 12.6295ZM50.681 11.6495C50.681 9.17152 48.8855 7.63152 46.5485 7.63152C44.2257 7.63152 42.416 9.17152 42.416 11.6495C42.416 14.1275 44.183 15.6675 46.52 15.6675C48.857 15.6675 50.681 14.1275 50.681 11.6495ZM44.8955 11.6495C44.8955 10.3195 45.665 9.70352 46.5485 9.70352C47.4035 9.70352 48.2015 10.3195 48.2015 11.6495C48.2015 12.9655 47.3892 13.5955 46.52 13.5955C45.6365 13.5955 44.8955 12.9655 44.8955 11.6495ZM52.216 15.5555H54.6528V9.73152H55.9638V7.74352H54.6528V7.67352C54.6528 6.84752 54.9805 6.56752 55.921 6.62352V4.59352C53.4985 4.46752 52.216 5.47552 52.216 7.51952V7.74352H51.3325V9.73152H52.216V15.5555ZM57.4935 12.8395C57.4935 14.8695 58.6477 15.5555 60.3007 15.5555H61.5405V13.5255H60.6712C60.1297 13.5255 59.9302 13.3295 59.9302 12.8675V9.73152H61.5262V7.74352H59.9302V5.83952H57.4935V7.74352H56.5245V9.73152H57.4935V12.8395ZM64.2373 15.5555H66.9163L68.2131 10.4875L69.4671 15.5555H72.1603L74.3121 7.74352H72.0178L70.9063 13.3015L69.5526 7.74352H66.9733L65.6338 13.3295L64.5081 7.74352H62.0713L64.2373 15.5555ZM74.7568 11.6355C74.7568 14.0995 76.3101 15.6675 78.2481 15.6675C79.431 15.6675 80.2717 15.1355 80.7135 14.4495V15.5555H83.1502V7.74352H80.7135V8.84952C80.286 8.16352 79.4452 7.63152 78.2623 7.63152C76.3101 7.63152 74.7568 9.17152 74.7568 11.6355ZM80.7135 11.6495C80.7135 12.8955 79.9012 13.5815 78.9748 13.5815C78.0628 13.5815 77.2363 12.8815 77.2363 11.6355C77.2363 10.3895 78.0628 9.71752 78.9748 9.71752C79.9012 9.71752 80.7135 10.4035 80.7135 11.6495ZM87.35 11.9295C87.35 10.5855 88.0198 10.1935 89.174 10.1935H89.8438V7.65952C88.775 7.65952 87.9058 8.21952 87.35 9.04552V7.74352H84.9133V15.5555H87.35V11.9295ZM94.5138 9.54952C95.3261 9.54952 96.0101 10.0395 96.0101 10.8935H92.9606C93.1031 10.0255 93.7158 9.54952 94.5138 9.54952ZM98.3186 12.9655H95.7251C95.5256 13.3855 95.1408 13.7215 94.4568 13.7215C93.6731 13.7215 93.0318 13.2455 92.9463 12.2235H98.4611C98.4896 11.9855 98.5038 11.7475 98.5038 11.5235C98.5038 9.14352 96.8651 7.63152 94.5423 7.63152C92.1768 7.63152 90.5238 9.17152 90.5238 11.6495C90.5238 14.1275 92.2053 15.6675 94.5423 15.6675C96.5231 15.6675 97.9338 14.4915 98.3186 12.9655ZM104.818 15.5555H107.768L109.421 9.08752L111.017 15.5555H113.967L116.574 5.72752H113.952L112.499 12.8815L110.789 5.72752H108.11L106.329 12.8815L104.889 5.72752H102.282L104.818 15.5555ZM125.577 11.6495C125.577 9.17152 123.782 7.63152 121.445 7.63152C119.122 7.63152 117.312 9.17152 117.312 11.6495C117.312 14.1275 119.079 15.6675 121.416 15.6675C123.753 15.6675 125.577 14.1275 125.577 11.6495ZM119.792 11.6495C119.792 10.3195 120.561 9.70352 121.445 9.70352C122.3 9.70352 123.098 10.3195 123.098 11.6495C123.098 12.9655 122.285 13.5955 121.416 13.5955C120.533 13.5955 119.792 12.9655 119.792 11.6495ZM129.307 11.9295C129.307 10.5855 129.977 10.1935 131.131 10.1935H131.801V7.65952C130.732 7.65952 129.863 8.21952 129.307 9.04552V7.74352H126.87V15.5555H129.307V11.9295ZM132.965 15.5555H135.402V5.19552H132.965V15.5555ZM136.683 11.6355C136.683 14.0995 138.236 15.6675 140.188 15.6675C141.357 15.6675 142.197 15.1495 142.639 14.4355V15.5555H145.076V5.19552H142.639V8.82152C142.155 8.10752 141.243 7.63152 140.188 7.63152C138.236 7.63152 136.683 9.17152 136.683 11.6355ZM142.639 11.6495C142.639 12.8955 141.827 13.5815 140.901 13.5815C139.989 13.5815 139.162 12.8815 139.162 11.6355C139.162 10.3895 139.989 9.71752 140.901 9.71752C141.827 9.71752 142.639 10.4035 142.639 11.6495Z" fill="white"/>
<path d="M35.8197 23.3333H36.6794L35.4729 20.0573H34.5324L33.3259 23.3333H34.1762L34.3757 22.7546H35.6202L35.8197 23.3333ZM35.4112 22.1386H34.5894L34.9979 20.9393L35.4112 22.1386ZM39.3025 20.0573H38.0532V23.3333H39.3025C40.3665 23.3333 41.0505 22.6659 41.0505 21.6953C41.0505 20.7199 40.3665 20.0573 39.3025 20.0573ZM38.8655 22.6426V20.7386H39.2502C39.863 20.7386 40.224 21.0933 40.224 21.6953C40.224 22.2973 39.863 22.6426 39.2502 22.6426H38.8655ZM41.5044 23.3333H42.3166V20.0573H41.5044V23.3333ZM44.3445 22.5306L43.518 20.0573H42.6535L43.8363 23.3333H44.8528L46.0355 20.0573H45.1758L44.3445 22.5306ZM46.375 23.3333H47.1872V20.0573H46.375V23.3333ZM50.1984 22.3579C50.1984 21.2613 48.5502 21.5179 48.5502 20.9486C48.5502 20.7433 48.6974 20.6453 48.8921 20.6499C49.1107 20.6546 49.2627 20.7806 49.2769 20.9906H50.1557C50.1224 20.3653 49.6332 20.0106 48.9064 20.0106C48.2082 20.0106 47.6904 20.3559 47.6904 20.9766C47.6809 22.1386 49.3482 21.8119 49.3482 22.4186C49.3482 22.6099 49.1962 22.7266 48.9587 22.7266C48.7307 22.7266 48.5691 22.6053 48.5454 22.3533H47.6809C47.7047 23.0159 48.2652 23.3659 48.9824 23.3659C49.7614 23.3659 50.1984 22.9086 50.1984 22.3579ZM50.6983 23.3333H51.5105V20.0573H50.6983V23.3333ZM55.3814 21.6859C55.3814 20.7013 54.6261 20.0106 53.6761 20.0106C52.7309 20.0106 51.9614 20.7013 51.9614 21.6859C51.9614 22.6706 52.7309 23.3659 53.6761 23.3659C54.6214 23.3659 55.3814 22.6706 55.3814 21.6859ZM52.7926 21.6859C52.7926 21.1026 53.1346 20.7339 53.6761 20.7339C54.2081 20.7339 54.5549 21.1026 54.5549 21.6859C54.5549 22.2599 54.2081 22.6379 53.6761 22.6379C53.1346 22.6379 52.7926 22.2599 52.7926 21.6859ZM58.004 20.0573V22.0873L56.6455 20.0573H55.8332V23.3333H56.6455V21.3126L58.004 23.3333H58.8162V20.0573H58.004ZM63.6939 21.6859C63.6939 20.7013 62.9386 20.0106 61.9886 20.0106C61.0434 20.0106 60.2739 20.7013 60.2739 21.6859C60.2739 22.6706 61.0434 23.3659 61.9886 23.3659C62.9339 23.3659 63.6939 22.6706 63.6939 21.6859ZM61.1051 21.6859C61.1051 21.1026 61.4471 20.7339 61.9886 20.7339C62.5206 20.7339 62.8674 21.1026 62.8674 21.6859C62.8674 22.2599 62.5206 22.6379 61.9886 22.6379C61.4471 22.6379 61.1051 22.2599 61.1051 21.6859ZM64.1457 23.3333H64.958V22.0079H65.9745V21.3873H64.958V20.6966H66.3165V20.0573H64.1457V23.3333ZM69.5122 21.1213C69.5122 21.3779 69.3697 21.5319 69.0657 21.5319H68.5622V20.7199H69.0657C69.3697 20.7199 69.5122 20.8786 69.5122 21.1213ZM67.75 20.0573V23.3333H68.5622V22.0966H68.757L69.4505 23.3333H70.3672L69.5977 22.0359C70.1107 21.8866 70.3387 21.4993 70.3387 21.0886C70.3387 20.5193 69.9302 20.0573 69.1132 20.0573H67.75ZM72.8911 20.0573H70.8486V23.3333H72.8911V22.6939H71.6609V21.9753H72.7486V21.3593H71.6609V20.6966H72.8911V20.0573ZM75.841 22.3579C75.841 21.2613 74.1927 21.5179 74.1927 20.9486C74.1927 20.7433 74.34 20.6453 74.5347 20.6499C74.7532 20.6546 74.9052 20.7806 74.9195 20.9906H75.7982C75.765 20.3653 75.2757 20.0106 74.549 20.0106C73.8507 20.0106 73.333 20.3559 73.333 20.9766C73.3235 22.1386 74.9907 21.8119 74.9907 22.4186C74.9907 22.6099 74.8387 22.7266 74.6012 22.7266C74.3732 22.7266 74.2117 22.6053 74.188 22.3533H73.3235C73.3472 23.0159 73.9077 23.3659 74.625 23.3659C75.404 23.3659 75.841 22.9086 75.841 22.3579ZM78.3833 20.0573H76.3408V23.3333H78.3833V22.6939H77.1531V21.9753H78.2408V21.3593H77.1531V20.6966H78.3833V20.0573ZM81.1861 23.3333H82.0459L80.8394 20.0573H79.8989L78.6922 23.3333H79.5426L79.7421 22.7546H80.9866L81.1861 23.3333ZM80.7776 22.1386H79.9559L80.3644 20.9393L80.7776 22.1386ZM84.1755 21.1213C84.1755 21.3779 84.033 21.5319 83.729 21.5319H83.2255V20.7199H83.729C84.033 20.7199 84.1755 20.8786 84.1755 21.1213ZM82.4132 20.0573V23.3333H83.2255V22.0966H83.4202L84.1137 23.3333H85.0305L84.261 22.0359C84.774 21.8866 85.002 21.4993 85.002 21.0886C85.002 20.5193 84.5935 20.0573 83.7765 20.0573H82.4132ZM85.3741 21.6906C85.3741 22.6706 86.0676 23.3566 87.0508 23.3566C87.844 23.3566 88.4426 22.9226 88.6325 22.2133H87.7396C87.6018 22.4933 87.35 22.6333 87.0413 22.6333C86.5425 22.6333 86.2006 22.2693 86.2006 21.6906C86.2006 21.1119 86.5425 20.7479 87.0413 20.7479C87.35 20.7479 87.6018 20.8879 87.7396 21.1679H88.6325C88.4426 20.4586 87.844 20.0199 87.0508 20.0199C86.0676 20.0199 85.3741 20.7106 85.3741 21.6906ZM91.2055 23.3333H92.0177V20.0573H91.2055V21.3406H89.942V20.0573H89.1297V23.3333H89.942V21.9846H91.2055V23.3333ZM95.9761 20.8506C95.9903 20.3979 95.653 19.9919 94.9738 19.9919C94.3088 19.9919 93.9335 20.3653 93.9335 20.8273C93.9335 21.0373 93.9953 21.2146 94.1663 21.4153C93.7055 21.6299 93.487 21.9799 93.487 22.3813C93.487 22.9879 93.9763 23.3846 94.7505 23.3846C95.1875 23.3846 95.5486 23.2679 95.8526 23.0393L96.1613 23.3333H97.1066L96.3038 22.5586C96.4083 22.4046 96.508 22.2319 96.5983 22.0359L96.8263 21.6299H96.014L95.8383 21.9239C95.8193 21.9706 95.7956 22.0126 95.7766 22.0546L94.9643 21.2753C94.7886 21.0933 94.6983 20.9579 94.6983 20.8226C94.6983 20.6826 94.8123 20.5893 94.9643 20.5893C95.1068 20.5893 95.216 20.6733 95.2113 20.8506H95.9761ZM94.7886 22.7406C94.4655 22.7406 94.2708 22.5539 94.2708 22.3253C94.2708 22.1386 94.3848 21.9753 94.6128 21.8586L95.3538 22.5633C95.1923 22.6799 95.007 22.7406 94.7886 22.7406ZM99.6565 20.0573H98.4073V23.3333H99.6565C100.721 23.3333 101.405 22.6659 101.405 21.6953C101.405 20.7199 100.721 20.0573 99.6565 20.0573ZM99.2195 22.6426V20.7386H99.6043C100.217 20.7386 100.578 21.0933 100.578 21.6953C100.578 22.2973 100.217 22.6426 99.6043 22.6426H99.2195ZM103.901 20.0573H101.858V23.3333H103.901V22.6939H102.67V21.9753H103.758V21.3593H102.67V20.6966H103.901V20.0573ZM105.867 22.5306L105.041 20.0573H104.176L105.359 23.3333H106.375L107.558 20.0573H106.698L105.867 22.5306ZM109.94 20.0573H107.898V23.3333H109.94V22.6939H108.71V21.9753H109.798V21.3593H108.71V20.6966H109.94V20.0573ZM110.467 20.0573V23.3333H112.344V22.7173H111.28V20.0573H110.467ZM116.013 21.6859C116.013 20.7013 115.258 20.0106 114.308 20.0106C113.363 20.0106 112.593 20.7013 112.593 21.6859C112.593 22.6706 113.363 23.3659 114.308 23.3659C115.253 23.3659 116.013 22.6706 116.013 21.6859ZM113.424 21.6859C113.424 21.1026 113.766 20.7339 114.308 20.7339C114.84 20.7339 115.187 21.1026 115.187 21.6859C115.187 22.2599 114.84 22.6379 114.308 22.6379C113.766 22.6379 113.424 22.2599 113.424 21.6859ZM117.277 21.5226V20.7013H117.719C118.042 20.7013 118.18 20.8599 118.18 21.1119C118.18 21.3639 118.042 21.5226 117.719 21.5226H117.277ZM119.006 21.1119C119.006 20.5099 118.598 20.0573 117.781 20.0573H116.465V23.3333H117.277V22.1573H117.781C118.631 22.1573 119.006 21.6533 119.006 21.1119ZM119.429 23.3333H120.241V21.3639L120.992 23.3333H121.647L122.393 21.3686V23.3333H123.205V20.0573H122.251L121.324 22.3253L120.389 20.0573H119.429V23.3333ZM125.832 20.0573H123.79V23.3333H125.832V22.6939H124.602V21.9753H125.69V21.3593H124.602V20.6966H125.832V20.0573ZM128.53 20.0573V22.0873L127.172 20.0573H126.359V23.3333H127.172V21.3126L128.53 23.3333H129.342V20.0573H128.53ZM129.751 20.6966H130.634V23.3333H131.447V20.6966H132.33V20.0573H129.751V20.6966ZM133.606 21.6906C133.606 22.6706 134.3 23.3566 135.283 23.3566C136.076 23.3566 136.675 22.9226 136.865 22.2133H135.972C135.834 22.4933 135.582 22.6333 135.274 22.6333C134.775 22.6333 134.433 22.2693 134.433 21.6906C134.433 21.1119 134.775 20.7479 135.274 20.7479C135.582 20.7479 135.834 20.8879 135.972 21.1679H136.865C136.675 20.4586 136.076 20.0199 135.283 20.0199C134.3 20.0199 133.606 20.7106 133.606 21.6906ZM139.405 20.0573H137.363V23.3333H139.405V22.6939H138.175V21.9753H139.263V21.3593H138.175V20.6966H139.405V20.0573ZM142.103 20.0573V22.0873L140.745 20.0573H139.933V23.3333H140.745V21.3126L142.103 23.3333H142.916V20.0573H142.103ZM143.323 20.6966H144.207V23.3333H145.019V20.6966H145.903V20.0573H143.323V20.6966ZM148.353 20.0573H146.31V23.3333H148.353V22.6939H147.122V21.9753H148.21V21.3593H147.122V20.6966H148.353V20.0573ZM150.643 21.1213C150.643 21.3779 150.501 21.5319 150.197 21.5319H149.693V20.7199H150.197C150.501 20.7199 150.643 20.8786 150.643 21.1213ZM148.881 20.0573V23.3333H149.693V22.0966H149.888L150.581 23.3333H151.498L150.729 22.0359C151.242 21.8866 151.47 21.4993 151.47 21.0886C151.47 20.5193 151.061 20.0573 150.244 20.0573H148.881Z" fill="white"/>
<path d="M14.8204 28C22.426 27.7057 28.5 21.5528 28.5 14.0055C28.5 6.28781 22.1486 0.0280079 14.3029 2.43151e-05C14.2852 -3.03939e-05 14.2677 2.43151e-05 14.25 2.43151e-05H14.3029C11.7436 6.75461 10.7991 11.3337 10.6467 12.779C12.8404 10.9078 15.8263 9.1469 17.045 8.50033C18.5531 7.99828 19.349 9.24194 19.5585 9.92655C20.061 10.4739 16.6114 22.1962 14.8204 28Z" fill="white"/>
<path d="M13.2383 27.9763C13.7031 27.0368 17.7827 10.6092 17.502 10.497C17.2735 10.4057 13.5983 13.0072 11.7893 14.3193C11.5418 14.5475 10.8295 14.924 9.96122 14.6046C9.09292 14.285 8.83777 13.5586 8.81869 13.2354C8.36222 10.8648 11.8577 3.43951 13.6684 0.0114746C6.06805 0.311308 0 6.46194 0 14.0055C0 21.4062 5.84038 27.4663 13.2383 27.9763Z" fill="white"/>
</g>
<defs>
<clipPath id="clip0">
<rect width="152" height="28" fill="white"/>
</clipPath>
</defs>
</svg>
