<svg width="240" height="129" viewBox="0 0 240 129" fill="none" xmlns="http://www.w3.org/2000/svg">
<path d="M61.5 91.5L34 113L50.5 128.5L69.5 99L61.5 91.5Z" fill="#E47A05"/>
<path d="M58 86L6 111L2 105L56.5 83L58 86Z" fill="#E47A05"/>
<path d="M55 77.5L9.5 85.5V61L55 67.5V77.5Z" fill="#E47A05"/>
<path d="M56.5 62L0.5 43.5L2.5 36.5L57.5 59.5L56.5 62Z" fill="#E47A05"/>
<path d="M61 53.5L11.5 19L27.5 1.5L67 47.5L61 53.5Z" fill="#E47A05"/>
<path d="M72.5 44L50.5 4.5L57.5 1.5L75 42.5L72.5 44Z" fill="#E47A05"/>
<path d="M81.5 41L75.5 0.5H99L93 41H81.5Z" fill="#E47A05"/>
<path d="M99.5 43L110 19.5L116 23L103 45.5L99.5 43Z" fill="#E47A05"/>
<path d="M73.7 90.2V53.2H87.6C90.9 53.2 93.7833 53.6667 96.25 54.6C98.75 55.5333 100.833 56.8333 102.5 58.5C104.167 60.1333 105.417 62.0333 106.25 64.2C107.083 66.3667 107.5 68.6667 107.5 71.1V72.2C107.5 74.4333 107.083 76.6333 106.25 78.8C105.417 80.9333 104.167 82.8667 102.5 84.6C100.833 86.3 98.75 87.6667 96.25 88.7C93.7833 89.7 90.9 90.2 87.6 90.2H73.7ZM88 61.9H83V81.5H88C91.1667 81.5 93.6333 80.6167 95.4 78.85C97.2 77.0833 98.1 74.6833 98.1 71.65C98.1 68.45 97.2 66.0333 95.4 64.4C93.6333 62.7333 91.1667 61.9 88 61.9ZM112.716 90V53.5H122.016V90H112.716ZM142.511 91C139.111 91 136.244 90.4667 133.911 89.4C131.611 88.3333 129.861 86.8833 128.661 85.05C127.494 83.1833 126.911 81.05 126.911 78.65H135.911C135.911 79.9833 136.444 81.1 137.511 82C138.611 82.8667 140.277 83.3 142.511 83.3C144.444 83.3 145.944 82.9333 147.011 82.2C148.111 81.4667 148.661 80.4833 148.661 79.25C148.661 78.1833 148.211 77.3667 147.311 76.8C146.411 76.2 144.894 75.8167 142.761 75.65L140.411 75.45C136.644 75.1167 133.644 73.9333 131.411 71.9C129.177 69.8667 128.061 67.1667 128.061 63.8C128.061 60.2333 129.294 57.45 131.761 55.45C134.227 53.4167 137.527 52.4 141.661 52.4C144.661 52.4 147.194 52.9 149.261 53.9C151.361 54.9 152.961 56.3167 154.061 58.15C155.161 59.95 155.711 62.05 155.711 64.45H146.711C146.711 63.25 146.261 62.2333 145.361 61.4C144.494 60.5333 143.261 60.1 141.661 60.1C140.127 60.1 138.977 60.45 138.211 61.15C137.444 61.85 137.061 62.7333 137.061 63.8C137.061 64.7333 137.377 65.5333 138.011 66.2C138.644 66.8667 139.744 67.2667 141.311 67.4L143.661 67.6C146.394 67.8333 148.811 68.4333 150.911 69.4C153.011 70.3333 154.661 71.6167 155.861 73.25C157.061 74.8833 157.661 76.8833 157.661 79.25C157.661 81.6167 157.044 83.6833 155.811 85.45C154.611 87.2167 152.877 88.5833 150.611 89.55C148.377 90.5167 145.677 91 142.511 91ZM162.47 90V53.5H171.77V67.55H185.67V53.5H194.97V90H185.67V75.65H171.77V90H162.47ZM199.062 90L210.762 53.5H225.662L237.762 90H228.162L225.512 81.55H210.962L208.362 90H199.062ZM213.262 73.95H223.112L219.062 61H217.212L213.262 73.95Z" fill="#E47A05"/>
<path d="M78.405 113V104.195H75.33V102.05H83.955V104.195H80.865V113H78.405ZM87.3025 113V101.96H91.6075C92.9775 101.96 94.0625 102.27 94.8625 102.89C95.6625 103.5 96.0625 104.415 96.0625 105.635V105.875C96.0625 106.675 95.8775 107.345 95.5075 107.885C95.1475 108.415 94.6425 108.815 93.9925 109.085L96.7975 113H93.9475L91.5475 109.49H89.7625V113H87.3025ZM91.8025 104.045H89.7625V107.555H91.8025C92.3325 107.555 92.7575 107.395 93.0775 107.075C93.4075 106.755 93.5725 106.33 93.5725 105.8C93.5725 105.28 93.4075 104.86 93.0775 104.54C92.7575 104.21 92.3325 104.045 91.8025 104.045ZM104.547 113.285C103.517 113.285 102.642 113.095 101.922 112.715C101.212 112.325 100.672 111.775 100.302 111.065C99.932 110.355 99.747 109.515 99.747 108.545V102.05H102.207V108.635C102.207 109.355 102.407 109.93 102.807 110.36C103.217 110.78 103.797 110.99 104.547 110.99C105.297 110.99 105.872 110.78 106.272 110.36C106.682 109.94 106.887 109.365 106.887 108.635V102.05H109.347V108.545C109.347 109.515 109.162 110.355 108.792 111.065C108.422 111.775 107.882 112.325 107.172 112.715C106.462 113.095 105.587 113.285 104.547 113.285ZM117.212 113.285C116.222 113.285 115.382 113.13 114.692 112.82C114.012 112.51 113.497 112.08 113.147 111.53C112.807 110.98 112.637 110.35 112.637 109.64H115.022C115.022 110.06 115.192 110.43 115.532 110.75C115.882 111.06 116.442 111.215 117.212 111.215C117.892 111.215 118.412 111.085 118.772 110.825C119.132 110.555 119.312 110.21 119.312 109.79C119.312 109.44 119.162 109.165 118.862 108.965C118.562 108.755 118.077 108.62 117.407 108.56L116.582 108.485C115.492 108.395 114.622 108.06 113.972 107.48C113.322 106.89 112.997 106.105 112.997 105.125C112.997 104.425 113.162 103.82 113.492 103.31C113.832 102.8 114.302 102.41 114.902 102.14C115.502 101.86 116.212 101.72 117.032 101.72C117.892 101.72 118.627 101.87 119.237 102.17C119.857 102.47 120.332 102.89 120.662 103.43C120.992 103.96 121.157 104.58 121.157 105.29H118.757C118.757 104.89 118.612 104.54 118.322 104.24C118.032 103.94 117.602 103.79 117.032 103.79C116.482 103.79 116.072 103.925 115.802 104.195C115.532 104.455 115.397 104.765 115.397 105.125C115.397 105.435 115.502 105.705 115.712 105.935C115.932 106.165 116.297 106.3 116.807 106.34L117.647 106.415C118.447 106.485 119.152 106.66 119.762 106.94C120.372 107.21 120.847 107.585 121.187 108.065C121.537 108.535 121.712 109.11 121.712 109.79C121.712 110.49 121.527 111.105 121.157 111.635C120.797 112.155 120.282 112.56 119.612 112.85C118.942 113.14 118.142 113.285 117.212 113.285ZM127.06 113V104.195H123.985V102.05H132.61V104.195H129.52V113H127.06ZM144.072 113.315C143.262 113.315 142.552 113.16 141.942 112.85C141.342 112.53 140.872 112.1 140.532 111.56C140.192 111.01 140.022 110.4 140.022 109.73V109.52C140.022 108.85 140.197 108.25 140.547 107.72C140.897 107.18 141.357 106.75 141.927 106.43C141.717 105.98 141.612 105.485 141.612 104.945C141.612 104.025 141.917 103.29 142.527 102.74C143.137 102.18 144.117 101.9 145.467 101.9C145.837 101.9 146.212 101.92 146.592 101.96C146.972 102 147.312 102.04 147.612 102.08V104.06C147.412 104.03 147.167 104.005 146.877 103.985C146.587 103.955 146.297 103.93 146.007 103.91C145.727 103.89 145.497 103.88 145.317 103.88C144.727 103.88 144.332 103.985 144.132 104.195C143.932 104.405 143.832 104.695 143.832 105.065C143.832 105.405 143.912 105.735 144.072 106.055C144.242 106.365 144.517 106.725 144.897 107.135L146.967 109.385C147.097 109.085 147.197 108.745 147.267 108.365C147.347 107.985 147.397 107.56 147.417 107.09H146.007V105.335H150.267V107.09H149.517C149.487 107.88 149.377 108.6 149.187 109.25C148.997 109.89 148.742 110.455 148.422 110.945L150.312 113H147.657L147.072 112.37C146.192 113 145.192 113.315 144.072 113.315ZM142.242 109.49C142.242 110.03 142.402 110.475 142.722 110.825C143.052 111.165 143.547 111.335 144.207 111.335C144.777 111.335 145.287 111.2 145.737 110.93L143.472 108.485C143.242 108.235 143.042 108.01 142.872 107.81C142.692 108.01 142.542 108.25 142.422 108.53C142.302 108.81 142.242 109.13 142.242 109.49ZM163.653 113.285C162.663 113.285 161.813 113.115 161.103 112.775C160.393 112.425 159.808 111.97 159.348 111.41C158.898 110.84 158.568 110.23 158.358 109.58C158.148 108.92 158.043 108.28 158.043 107.66V107.33C158.043 106.65 158.153 105.98 158.373 105.32C158.593 104.65 158.928 104.045 159.378 103.505C159.838 102.965 160.413 102.535 161.103 102.215C161.803 101.885 162.628 101.72 163.578 101.72C164.568 101.72 165.438 101.905 166.188 102.275C166.948 102.645 167.553 103.16 168.003 103.82C168.463 104.48 168.738 105.245 168.828 106.115H166.353C166.243 105.465 165.938 104.955 165.438 104.585C164.938 104.205 164.318 104.015 163.578 104.015C162.598 104.015 161.843 104.34 161.313 104.99C160.793 105.63 160.533 106.47 160.533 107.51C160.533 108.2 160.653 108.81 160.893 109.34C161.133 109.86 161.483 110.265 161.943 110.555C162.413 110.845 162.983 110.99 163.653 110.99C164.413 110.99 165.053 110.805 165.573 110.435C166.103 110.065 166.423 109.555 166.533 108.905H168.993C168.903 109.715 168.633 110.45 168.183 111.11C167.743 111.77 167.138 112.3 166.368 112.7C165.608 113.09 164.703 113.285 163.653 113.285ZM172.425 113V102.05H174.885V106.415H179.505V102.05H181.965V113H179.505V108.575H174.885V113H172.425ZM185.187 113L188.802 102.05H192.777L196.527 113H193.977L193.092 110.285H188.517L187.647 113H185.187ZM189.162 108.245H192.417L191.052 104.06H190.497L189.162 108.245ZM199.756 113V101.96H204.061C205.431 101.96 206.516 102.27 207.316 102.89C208.116 103.5 208.516 104.415 208.516 105.635V105.875C208.516 106.675 208.331 107.345 207.961 107.885C207.601 108.415 207.096 108.815 206.446 109.085L209.251 113H206.401L204.001 109.49H202.216V113H199.756ZM204.256 104.045H202.216V107.555H204.256C204.786 107.555 205.211 107.395 205.531 107.075C205.861 106.755 206.026 106.33 206.026 105.8C206.026 105.28 205.861 104.86 205.531 104.54C205.211 104.21 204.786 104.045 204.256 104.045ZM212.543 113V102.05H215.003V113H212.543ZM221.468 113V104.195H218.393V102.05H227.018V104.195H223.928V113H221.468ZM233.078 113V108.845H232.538L229.343 102.05H231.863L234.098 107H234.578L236.588 102.05H238.973L236.033 108.845H235.493V113H233.078Z" fill="#E47A05"/>
</svg>
